HIERARCHY
ROOT Hips
{
  OFFSET -187.679 86.5976 -156.378
  CHANNELS 6 Xposition Yposition Zposition Zrotation Xrotation Yrotation
  JOINT LeftUpLeg
  {
    OFFSET 8.64259 1.95398 -2.38835
    CHANNELS 3 Zrotation Xrotation Yrotation
    JOINT LeftLeg
    {
      OFFSET 43.7702 0 0
      CHANNELS 3 Zrotation Xrotation Yrotation
      JOINT LeftFoot
      {
        OFFSET 40.6238 0 0
        CHANNELS 3 Zrotation Xrotation Yrotation
        JOINT LeftToeBase
        {
          OFFSET 12.7242 0 0
          CHANNELS 3 Zrotation Xrotation Yrotation
          End Site
          {
            OFFSET 0 0 0
          }
        }
      }
    }
  }
  JOINT RightUpLeg
  {
    OFFSET -8.2249 1.95398 -2.59336
    CHANNELS 3 Zrotation Xrotation Yrotation
    JOINT RightLeg
    {
      OFFSET 43.5653 0 0
      CHANNELS 3 Zrotation Xrotation Yrotation
      JOINT RightFoot
      {
        OFFSET 40.6238 0 0
        CHANNELS 3 Zrotation Xrotation Yrotation
        JOINT RightToeBase
        {
          OFFSET 12.7242 0 0
          CHANNELS 3 Zrotation Xrotation Yrotation
          End Site
          {
            OFFSET 0 0 0
          }
        }
      }
    }
  }
  JOINT Spine
  {
    OFFSET 0.165834 0.87714 6.61349
    CHANNELS 3 Zrotation Xrotation Yrotation
    JOINT Spine1
    {
      OFFSET 7.38963 1.71661e-005 0
      CHANNELS 3 Zrotation Xrotation Yrotation
      JOINT Spine2
      {
        OFFSET 11.9445 1.14441e-005 0
        CHANNELS 3 Zrotation Xrotation Yrotation
        JOINT Spine3
        {
          OFFSET 14.7254 4.19617e-005 0
          CHANNELS 3 Zrotation Xrotation Yrotation
          JOINT Spine4
          {
            OFFSET 10.9679 0 0
            CHANNELS 3 Zrotation Xrotation Yrotation
            JOINT RightShoulder
            {
              OFFSET 2.46616 -1.6653 3.69651
              CHANNELS 3 Zrotation Xrotation Yrotation
              JOINT RightArm
              {
                OFFSET 13.0012 0 0
                CHANNELS 3 Zrotation Xrotation Yrotation
                JOINT RightForeArm
                {
                  OFFSET 28.7848 1.52588e-005 0
                  CHANNELS 3 Zrotation Xrotation Yrotation
                  JOINT RightHand
                  {
                    OFFSET 26.5688 1.52588e-005 0
                    CHANNELS 3 Zrotation Xrotation Yrotation
                    End Site
                    {
                      OFFSET 0 0 0
                    }
                  }
                }
              }
            }
            JOINT LeftShoulder
            {
              OFFSET 2.38034 -1.29275 -3.7523
              CHANNELS 3 Zrotation Xrotation Yrotation
              JOINT LeftArm
              {
                OFFSET 16.3182 6.10352e-005 0
                CHANNELS 3 Zrotation Xrotation Yrotation
                JOINT LeftForeArm
                {
                  OFFSET 27.0901 0 0
                  CHANNELS 3 Zrotation Xrotation Yrotation
                  JOINT LeftHand
                  {
                    OFFSET 24.5451 1.52588e-005 0
                    CHANNELS 3 Zrotation Xrotation Yrotation
                    End Site
                    {
                      OFFSET 0 0 0
                    }
                  }
                }
              }
            }
            JOINT Neck
            {
              OFFSET 5.0226 -0.0266342 0
              CHANNELS 3 Zrotation Xrotation Yrotation
              JOINT Head
              {
                OFFSET 6.69363 2.86102e-005 0
                CHANNELS 3 Zrotation Xrotation Yrotation
                End Site
                {
                  OFFSET 0 0 0
                }
              }
            }
          }
        }
      }
    }
  }
}
MOTION
Frames:	6
Frame Time:	0.0416667
226.786 101.276 235.723 -104.482 -58.0191 -102.473 -174.845 -3.48773 89.1813 -20.4672 27.6306 9.86955 64.7174 3.5572 3.96291 31.9793 0.565189 2.26386 172.021 -6.74001 85.1096 -14.822 -1.04805 -0.409634 65.4146 -2.98235 1.04101 24.282 -1.03567 1.02875 0.0571748 8.25726 -89.7582 10.3587 0.224684 0.460839 -1.31235 0.244747 0.450495 -23.8469 0.0757952 0.508352 -3.83423 0.0758075 0.508355 82.6494 -51.7054 -111.124 25.4128 -18.8223 -9.89179 -18.8926 -14.7539 -22.2196 -11.0501 -0.171125 -3.44594 -92.0405 -48.0637 75.4292 -24.7961 29.3379 -8.36294 0.333512 -26.1692 -28.3641 -16.1844 3.82018 -35.641 9.18322 0.581992 -7.26435 6.01136 2.42628 3.58658 
226.803 101.169 235.921 -104.843 -57.5882 -102.9 -175.093 -4.27655 88.7139 -19.9544 27.6959 10.1153 64.3525 3.37759 3.95671 33.3364 -0.0677361 6.47158 171.961 -6.35256 84.8635 -16.1908 -1.32074 -0.591292 66.0027 -3.06552 1.02942 24.4509 -1.04593 1.14607 0.0827561 8.28801 -89.7612 10.2971 0.274126 0.450715 -1.37393 0.293698 0.43821 -23.9085 0.125988 0.512486 -3.89587 0.125994 0.512486 82.5191 -51.1824 -111.498 26.3048 -17.7172 -9.36126 -19.3171 -15.027 -22.677 -11.4653 -0.171131 -3.41389 -92.1452 -48.1124 75.2831 -24.956 29.0991 -8.47803 0.978993 -25.5781 -27.6355 -16.6083 3.90166 -35.3475 9.159 0.400769 -7.36621 6.11043 2.2831 3.70648 
226.764 101.122 235.988 -104.991 -57.6506 -103.017 -175.004 -3.85273 88.8668 -20.8774 27.2132 9.91985 65.1282 3.74243 3.84624 32.9276 0.472722 3.94119 171.837 -6.04991 84.7885 -17.0353 -1.42562 -0.482642 66.2792 -3.16318 0.935773 24.6354 -1.00698 1.12125 0.0330859 8.30296 -89.7814 10.2676 0.165828 0.419813 -1.40343 0.184163 0.412094 -23.9381 0.0319811 0.450242 -3.9254 0.0319962 0.45024 82.6398 -51.0745 -111.357 26.1922 -18.0391 -9.34354 -19.2115 -14.9055 -22.6187 -11.7773 -0.172428 -3.40705 -91.9709 -48.1556 75.5579 -24.9689 29.3525 -8.3916 1.23891 -25.2407 -27.5185 -17.1428 3.91019 -34.3231 9.02845 0.647094 -7.22969 6.21544 2.48414 3.65368 
226.803 101.018 236.008 -105.226 -57.4905 -103.21 -174.455 -3.12988 89.3381 -22.242 27.8142 9.13464 65.2462 3.71148 3.4984 33.8139 0.736441 4.32892 171.944 -5.57406 84.8219 -18.2757 -1.34693 -0.625223 66.6603 -3.36128 0.943661 24.9658 -1.00644 1.29151 0.0345458 8.36511 -89.8097 10.1433 0.155683 0.364718 -1.52774 0.171584 0.35751 -24.0625 0.038866 0.394647 -4.04983 0.0388754 0.394648 83.2001 -50.8364 -110.613 26.2229 -18.4665 -9.64482 -19.1965 -14.8284 -22.6391 -10.9109 -0.132043 -3.74127 -92.1135 -48.3464 75.3915 -24.3816 29.7959 -8.57305 0.982364 -25.574 -27.4827 -17.5564 3.82742 -32.9395 9.28896 0.60115 -6.95294 6.48848 2.39574 3.55719 
226.848 100.862 235.971 -105.514 -57.1599 -103.628 -174.486 -2.63679 89.1004 -23.7489 27.7277 8.94664 65.7953 4.28143 4.89467 33.627 0.64731 4.36741 171.685 -4.72225 84.4566 -20.2313 -1.82688 -0.61165 67.4277 -3.64422 0.930541 25.1425 -0.988024 1.32603 0.0665273 8.42174 -89.7926 10.0298 0.226968 0.392807 -1.64112 0.244048 0.38243 -24.1759 0.0984407 0.442871 -4.16321 0.0984274 0.442854 82.408 -51.3588 -111.599 25.6822 -17.7878 -8.87291 -19.5948 -14.4384 -23.492 -10.4326 -0.11305 -3.89959 -92.2754 -48.1229 75.0889 -24.0487 30.2223 -8.83095 1.29275 -24.9662 -26.6609 -18.4537 3.82169 -31.3446 9.13137 0.586978 -7.14548 6.96513 2.41745 3.41673 
227.021 100.602 235.883 -105.179 -56.3701 -103.761 -175.124 -1.77099 88.1746 -25.3833 25.9033 9.07721 66.2452 4.24133 4.06225 33.8948 0.294366 6.05996 171.625 -2.84413 83.9093 -23.3632 -2.39834 -0.890827 68.3857 -3.97794 1.226 25.4558 -0.828321 0.991079 0.114059 8.4595 -89.7861 9.95419 0.324556 0.397942 -1.71677 0.341753 0.383255 -24.2516 0.18995 0.477076 -4.23893 0.189948 0.477073 83.2439 -50.566 -110.641 26.094 -17.3764 -8.97778 -19.5929 -14.4732 -23.5399 -11.2868 -0.129485 -3.81294 -92.5722 -48.427 74.721 -23.7789 29.9949 -9.00082 1.92365 -23.8787 -25.8371 -19.1784 3.66066 -29.1635 8.80965 0.667478 -6.93983 6.89793 2.48392 4.04732 
